<?xml version="1.0" standalone="no"?>
<!DOCTYPE svg PUBLIC "-//W3C//DTD SVG 20010904//EN"
 "http://www.w3.org/TR/2001/REC-SVG-20010904/DTD/svg10.dtd">
<svg version="1.0" xmlns="http://www.w3.org/2000/svg"
 width="149.000000pt" height="125.000000pt" viewBox="0 0 149.000000 125.000000"
 preserveAspectRatio="xMidYMid meet">

<g transform="translate(0.000000,125.000000) scale(0.100000,-0.100000)"
fill="#2c3d47" stroke="none">
<path d="M923 1178 c-25 -31 -206 -573 -239 -713 -36 -154 -13 -259 73 -335
136 -119 339 -79 426 84 29 55 29 169 -2 286 -42 160 -218 661 -240 683 -4 4
-12 2 -18 -5z m122 -388 c43 -146 57 -240 35 -240 -19 0 -39 71 -60 208 -11
75 -23 151 -26 167 -15 71 10 6 51 -135z m-172 -156 c45 -23 76 -53 98 -96 21
-42 33 -46 61 -21 25 23 68 4 68 -31 0 -31 -22 -48 -56 -44 -32 4 -44 -17 -15
-27 57 -18 80 -108 41 -158 -15 -18 -20 -40 -20 -81 l0 -56 -65 0 -65 0 0 45
0 44 -102 3 -103 3 -14 57 c-11 41 -12 69 -5 105 l9 48 65 5 65 5 -52 13 c-49
13 -71 27 -61 38 3 2 44 -10 93 -26 90 -31 145 -38 145 -20 0 26 -45 103 -76
130 -29 25 -43 30 -85 30 -43 0 -50 3 -45 16 3 9 6 20 6 25 0 15 79 10 113 -7z"/>
<path d="M720 320 c0 -16 5 -30 10 -30 6 0 10 14 10 30 0 17 -4 30 -10 30 -5
0 -10 -13 -10 -30z"/>
<path d="M780 320 c0 -16 5 -30 10 -30 6 0 10 14 10 30 0 17 -4 30 -10 30 -5
0 -10 -13 -10 -30z"/>
<path d="M840 320 c0 -16 5 -30 10 -30 6 0 10 14 10 30 0 17 -4 30 -10 30 -5
0 -10 -13 -10 -30z"/>
<path d="M940 335 c-18 -22 5 -45 45 -45 18 0 38 7 45 15 18 22 -5 45 -45 45
-18 0 -38 -7 -45 -15z"/>
<path d="M489 627 c-27 -14 -56 -42 -77 -73 -39 -57 -46 -61 -68 -40 -20 20
-38 20 -58 0 -19 -18 -20 -28 -5 -55 8 -15 19 -20 41 -17 41 4 45 -13 9 -34
-44 -24 -59 -82 -35 -133 10 -22 21 -65 24 -95 l5 -55 63 -3 62 -3 0 46 0 45
106 0 106 0 -7 32 c-4 18 -12 40 -18 50 -8 13 -8 30 1 63 20 76 19 78 -62 102
-41 13 -82 26 -91 30 -13 4 -16 2 -13 -8 2 -7 29 -21 59 -31 l54 -17 -87 0
-87 -1 9 31 c14 49 44 92 80 116 28 19 46 23 116 23 46 0 84 4 84 9 0 5 3 16
6 25 5 14 -6 16 -83 16 -74 0 -97 -4 -134 -23z m-59 -287 c25 -16 -1 -45 -44
-48 -38 -3 -54 13 -42 43 6 17 62 20 86 5z m105 -20 c0 -13 -6 -25 -12 -27 -9
-3 -13 6 -13 27 0 21 4 30 13 28 6 -3 12 -15 12 -28z m60 0 c0 -13 -6 -25 -12
-27 -9 -3 -13 6 -13 27 0 21 4 30 13 28 6 -3 12 -15 12 -28z"/>
</g>
</svg>
