<?xml version="1.0" standalone="no"?>
<!DOCTYPE svg PUBLIC "-//W3C//DTD SVG 20010904//EN"
 "http://www.w3.org/TR/2001/REC-SVG-20010904/DTD/svg10.dtd">
<svg version="1.0" xmlns="http://www.w3.org/2000/svg"
 width="149.000000pt" height="125.000000pt" viewBox="0 0 149.000000 125.000000"
 preserveAspectRatio="xMidYMid meet">

<g transform="translate(0.000000,125.000000) scale(0.100000,-0.100000)"
fill="#000000" stroke="none">
<path d="M457 1193 c-4 -3 -7 -16 -7 -27 0 -19 6 -21 72 -21 59 0 73 3 76 16
2 11 -8 20 -29 28 -35 12 -102 15 -112 4z"/>
<path d="M466 1105 c-19 -20 -40 -116 -32 -148 8 -33 77 -66 131 -62 56 3 55
3 55 24 0 21 16 35 40 36 41 0 -23 129 -76 154 -35 16 -100 14 -118 -4z"/>
<path d="M259 1021 c-17 -18 -29 -40 -29 -56 0 -33 41 -75 74 -75 43 0 66 -36
66 -101 0 -32 -4 -61 -10 -64 -16 -10 -12 -45 5 -45 27 0 48 58 43 122 -5 72
-31 111 -79 119 -19 3 -40 9 -47 13 -16 10 -15 51 1 65 22 18 74 24 106 13 24
-9 31 -8 36 5 9 24 -13 33 -78 33 -51 0 -62 -4 -88 -29z"/>
<path d="M636 943 c-15 -15 -4 -33 30 -49 20 -9 45 -30 57 -46 11 -15 27 -28
34 -28 8 0 11 -4 8 -10 -3 -5 -1 -10 5 -10 7 0 9 7 6 16 -3 9 -6 19 -6 24 0
30 -117 120 -134 103z"/>
<path d="M760 782 c0 -4 9 -15 20 -25 11 -9 20 -24 20 -32 0 -8 5 -15 10 -15
6 0 5 11 -3 28 -8 15 -12 33 -10 40 3 7 -4 12 -16 12 -12 0 -21 -3 -21 -8z"/>
<path d="M810 762 c0 -5 10 -17 22 -28 l21 -19 -18 28 c-18 28 -25 33 -25 19z"/>
<path d="M771 734 c0 -11 3 -14 6 -6 3 7 2 16 -1 19 -3 4 -6 -2 -5 -13z"/>
<path d="M684 691 c-29 -18 -56 -47 -80 -87 -10 -17 -14 -18 -38 -4 -20 10
-32 11 -44 3 -41 -25 -13 -79 35 -67 32 8 29 -2 -12 -40 -48 -45 -48 -85 0
-133 28 -28 35 -43 35 -75 l0 -39 38 3 c35 3 37 5 40 41 l3 37 195 0 196 0 -4
-38 -3 -37 40 0 c39 0 40 1 43 39 2 28 12 47 33 67 23 21 29 36 29 68 0 34 -5
44 -34 68 -36 28 -38 48 -5 38 40 -13 66 39 33 66 -13 11 -21 11 -44 -3 -28
-16 -28 -16 -55 26 -42 67 -81 88 -159 85 -36 -1 -66 -6 -66 -11 0 -5 -4 -6
-10 -3 -5 3 -10 2 -10 -3 0 -18 13 -21 27 -6 14 13 17 13 32 -1 10 -8 32 -15
50 -15 44 0 85 -31 110 -83 37 -77 27 -82 -89 -42 -73 25 -110 32 -96 18 4 -5
28 -16 54 -25 l47 -16 -60 -1 c-38 -1 -89 8 -139 24 -79 25 -116 31 -102 18 4
-5 31 -15 59 -25 l52 -16 -77 -1 c-72 -1 -78 1 -78 19 0 52 70 130 117 130 19
0 24 4 19 16 -3 9 -6 18 -6 20 0 11 -49 2 -76 -15z m93 -278 c-4 -17 -4 -17
-12 0 -4 9 -4 25 0 35 8 16 8 16 12 0 3 -10 3 -26 0 -35z m63 17 c0 -10 -5
-22 -10 -25 -13 -8 -24 20 -16 41 8 20 26 9 26 -16z m50 -6 c0 -13 -4 -24 -10
-24 -5 0 -10 14 -10 31 0 17 4 28 10 24 6 -3 10 -17 10 -31z m97 -11 c-4 -17
-4 -17 -12 0 -4 9 -4 25 0 35 8 16 8 16 12 0 3 -10 3 -26 0 -35z m-342 27 c10
-16 -14 -40 -39 -40 -31 0 -50 16 -43 34 7 18 72 23 82 6z m85 -15 c0 -14 -4
-25 -10 -25 -5 0 -10 11 -10 25 0 14 5 25 10 25 6 0 10 -11 10 -25z m210 0 c0
-14 -4 -25 -10 -25 -5 0 -10 11 -10 25 0 14 5 25 10 25 6 0 10 -11 10 -25z
m198 3 c-2 -19 -9 -23 -38 -23 -29 0 -36 4 -38 23 -3 20 1 22 38 22 37 0 41
-2 38 -22z"/>
<path d="M775 700 c3 -5 8 -10 11 -10 2 0 4 5 4 10 0 6 -5 10 -11 10 -5 0 -7
-4 -4 -10z"/>
<path d="M804 688 c-4 -7 -3 -8 4 -4 7 4 12 3 12 -1 0 -5 7 -18 15 -29 13 -17
13 -16 3 14 -13 34 -22 39 -34 20z"/>
<path d="M781 664 c0 -11 3 -14 6 -6 3 7 2 16 -1 19 -3 4 -6 -2 -5 -13z"/>
<path d="M458 523 c7 -3 16 -2 19 1 4 3 -2 6 -13 5 -11 0 -14 -3 -6 -6z"/>
<path d="M360 480 c-12 -8 -10 -10 8 -10 13 0 20 4 17 10 -7 12 -6 12 -25 0z"/>
<path d="M455 470 c-8 -12 20 -24 35 -15 5 3 10 10 10 16 0 12 -37 12 -45 -1z"/>
<path d="M1213 420 c-2 -22 1 -28 13 -23 8 3 14 15 12 26 -5 32 -23 30 -25 -3z"/>
<path d="M343 398 c2 -7 14 -13 27 -13 13 0 25 6 28 13 2 8 -7 12 -28 12 -21
0 -30 -4 -27 -12z"/>
<path d="M434 391 c-33 -20 -64 -57 -64 -77 0 -27 53 -74 98 -88 26 -8 82 -32
124 -54 92 -47 171 -64 296 -65 51 0 95 -4 98 -8 8 -14 42 -11 51 5 4 7 39 23
76 36 132 43 180 122 119 191 l-29 32 -26 -19 c-20 -14 -26 -28 -27 -54 0 -47
-15 -60 -67 -60 -45 0 -63 17 -63 59 0 20 -5 21 -170 21 l-170 0 0 -29 c0 -39
-20 -53 -72 -49 -42 3 -43 4 -46 43 -3 28 -13 50 -38 77 -19 21 -34 43 -34 48
0 15 -22 12 -56 -9z"/>
<path d="M305 350 c-3 -5 1 -10 10 -10 9 0 13 5 10 10 -3 6 -8 10 -10 10 -2 0
-7 -4 -10 -10z"/>
<path d="M340 250 c0 -5 7 -10 15 -10 8 0 15 5 15 10 0 6 -7 10 -15 10 -8 0
-15 -4 -15 -10z"/>
<path d="M370 170 c-13 -9 -13 -11 0 -20 8 -5 20 -10 25 -10 6 0 17 5 25 10
13 9 13 11 0 20 -8 5 -19 10 -25 10 -5 0 -17 -5 -25 -10z"/>
<path d="M590 100 c-13 -9 -13 -11 0 -20 8 -5 20 -10 25 -10 14 0 40 18 35 23
-13 12 -47 15 -60 7z"/>
<path d="M473 78 c2 -7 14 -13 27 -13 13 0 25 6 28 13 2 8 -7 12 -28 12 -21 0
-30 -4 -27 -12z"/>
<path d="M818 73 c7 -3 16 -2 19 1 4 3 -2 6 -13 5 -11 0 -14 -3 -6 -6z"/>
</g>
</svg>
