<?xml version="1.0" standalone="no"?>
<!DOCTYPE svg PUBLIC "-//W3C//DTD SVG 20010904//EN"
 "http://www.w3.org/TR/2001/REC-SVG-20010904/DTD/svg10.dtd">
<svg version="1.0" xmlns="http://www.w3.org/2000/svg"
 width="149.000000pt" height="125.000000pt" viewBox="0 0 149.000000 125.000000"
 preserveAspectRatio="xMidYMid meet">

<g transform="translate(0.000000,125.000000) scale(0.100000,-0.100000)"
fill="#090e5f" stroke="none">
<path d="M728 1183 c-12 -3 -18 -14 -18 -32 l0 -28 -108 -5 c-129 -6 -163 -20
-185 -77 -9 -22 -21 -42 -27 -46 -5 -3 -10 -10 -10 -16 0 -12 717 -12 724 0 3
5 -1 14 -9 21 -8 6 -19 27 -25 46 -17 51 -55 66 -182 72 -105 5 -108 6 -108
28 0 25 -25 43 -52 37z"/>
<path d="M160 900 l0 -80 -41 0 c-48 0 -50 -22 -3 -30 l29 -6 -33 -7 c-40 -8
-38 -29 4 -38 l29 -6 -30 -4 c-18 -2 -30 -10 -30 -19 0 -8 13 -17 30 -21 l30
-6 -30 -4 c-18 -2 -30 -10 -30 -19 0 -8 13 -17 30 -21 l30 -6 -30 -4 c-37 -5
-40 -31 -5 -40 l25 -6 -24 -4 c-40 -7 -36 -27 6 -31 l38 -4 -34 -10 c-47 -14
-52 -34 -9 -35 l33 -1 -32 -14 c-18 -8 -33 -19 -33 -24 0 -6 15 -10 33 -11
l32 -1 -32 -14 c-42 -18 -42 -34 0 -34 l32 -1 -32 -14 c-18 -8 -33 -19 -33
-25 0 -5 15 -10 33 -11 l32 -1 -32 -10 c-43 -14 -43 -38 0 -39 l32 -1 -33 -9
c-39 -12 -37 -32 4 -39 l29 -6 -33 -7 c-40 -8 -38 -29 4 -38 l29 -6 -30 -4
c-18 -2 -30 -10 -30 -19 0 -8 13 -17 30 -21 l30 -6 -30 -4 c-45 -6 -39 -33 8
-37 29 -3 37 -7 37 -23 0 -16 7 -19 40 -19 33 0 40 3 40 19 0 16 8 20 38 23
43 4 51 28 12 39 l-25 6 24 4 c33 5 38 26 9 35 l-23 7 23 8 c34 13 26 29 -15
30 l-38 1 34 12 c49 18 51 36 4 37 l-38 0 33 12 c43 15 42 30 0 37 l-33 6 38
7 c46 10 44 30 -4 37 l-34 6 38 7 c46 10 44 30 -4 37 l-34 6 38 7 c44 9 45 29
1 37 l-29 6 33 7 c40 8 38 30 -4 37 l-29 6 33 7 c38 8 39 28 1 38 l-24 6 25 4
c14 2 25 11 25 19 0 8 -11 17 -25 21 l-25 6 25 4 c14 2 25 11 25 19 0 8 -11
17 -25 21 l-25 6 24 4 c42 7 37 29 -6 30 l-38 1 34 12 c49 18 51 36 4 37 l-38
1 34 12 c51 18 51 36 2 36 l-41 0 0 80 0 80 -40 0 -40 0 0 -80z"/>
<path d="M1250 900 l0 -80 -40 0 c-52 0 -53 -23 -2 -37 l37 -10 -38 -2 c-47
-1 -45 -19 4 -37 l34 -12 -37 -1 c-42 -1 -50 -17 -16 -30 l22 -8 -22 -5 c-12
-4 -22 -11 -22 -18 0 -7 10 -14 22 -18 l22 -5 -23 -9 c-28 -10 -23 -30 10 -39
l24 -6 -25 -4 c-14 -2 -25 -11 -25 -19 0 -8 11 -17 25 -21 l25 -6 -24 -4 c-38
-6 -37 -28 1 -36 l33 -7 -29 -6 c-42 -7 -44 -29 -4 -37 l33 -7 -29 -6 c-43 -8
-42 -26 1 -38 l38 -10 -37 -1 c-25 -1 -38 -6 -38 -15 0 -8 17 -18 38 -24 l37
-10 -37 -1 c-25 -1 -38 -6 -38 -15 0 -8 17 -18 38 -24 l37 -10 -37 -1 c-48 -1
-51 -24 -5 -39 l32 -10 -32 -1 c-38 -1 -44 -18 -11 -30 l22 -8 -22 -5 c-12 -4
-22 -11 -22 -17 0 -7 10 -15 22 -20 l22 -8 -23 -6 c-34 -9 -20 -32 22 -35 29
-3 37 -7 37 -23 0 -16 7 -19 40 -19 33 0 40 3 40 19 0 16 8 20 38 23 46 4 51
30 7 39 -30 7 -30 7 -3 8 26 1 46 17 35 28 -4 3 -21 9 -39 13 l-33 8 32 1 c30
1 51 16 40 28 -4 3 -21 9 -39 13 l-33 8 32 1 c54 2 49 33 -7 44 -21 4 -20 4 7
6 45 2 50 19 11 35 l-33 14 30 4 c39 4 36 20 -7 35 l-33 11 35 4 c42 4 41 19
-3 35 l-32 11 32 1 c45 1 50 18 11 35 l-33 14 33 1 c43 1 38 21 -9 35 l-34 10
38 4 c42 4 46 23 6 32 l-24 6 28 7 c35 9 30 30 -9 38 l-29 6 30 4 c18 2 30 10
30 19 0 8 -13 17 -30 21 l-30 6 29 4 c42 6 45 28 4 36 l-33 7 29 6 c42 7 44
29 4 37 l-33 7 29 6 c42 7 38 24 -6 28 l-38 3 0 80 0 79 -40 0 -40 0 0 -80z"/>
<path d="M400 920 c0 -13 5 -20 13 -17 6 2 12 10 12 17 0 7 -6 15 -12 18 -8 2
-13 -5 -13 -18z"/>
<path d="M512 924 c4 -21 22 -23 26 -1 2 10 -3 17 -13 17 -10 0 -15 -6 -13
-16z"/>
<path d="M622 924 c4 -21 22 -23 26 -1 2 10 -3 17 -13 17 -10 0 -15 -6 -13
-16z"/>
<path d="M732 924 c4 -21 22 -23 26 -1 2 10 -3 17 -13 17 -10 0 -15 -6 -13
-16z"/>
<path d="M842 924 c4 -21 22 -23 26 -1 2 10 -3 17 -13 17 -10 0 -15 -6 -13
-16z"/>
<path d="M952 924 c4 -21 22 -23 26 -1 2 10 -3 17 -13 17 -10 0 -15 -6 -13
-16z"/>
<path d="M1062 924 c4 -21 22 -23 26 -1 2 10 -3 17 -13 17 -10 0 -15 -6 -13
-16z"/>
<path d="M397 874 c-11 -11 -8 -44 3 -44 15 0 24 30 13 41 -5 5 -12 6 -16 3z"/>
<path d="M506 873 c-12 -12 -6 -43 9 -43 8 0 15 9 15 19 0 21 -13 34 -24 24z"/>
<path d="M737 874 c-11 -11 -8 -44 3 -44 15 0 24 30 13 41 -5 5 -12 6 -16 3z"/>
<path d="M844 866 c-6 -17 2 -36 17 -36 12 0 12 37 -1 45 -6 3 -13 -1 -16 -9z"/>
<path d="M967 874 c-11 -11 -8 -44 3 -44 15 0 24 30 13 41 -5 5 -12 6 -16 3z"/>
<path d="M1076 873 c-12 -12 -6 -43 9 -43 8 0 15 9 15 19 0 21 -13 34 -24 24z"/>
<path d="M614 859 c-8 -14 11 -33 25 -25 16 10 13 36 -3 36 -8 0 -18 -5 -22
-11z"/>
<path d="M380 780 c0 -11 7 -20 15 -20 8 0 15 9 15 20 0 11 -7 20 -15 20 -8 0
-15 -9 -15 -20z"/>
<path d="M497 785 c-8 -18 11 -31 25 -17 11 11 3 32 -12 32 -4 0 -10 -7 -13
-15z"/>
<path d="M610 780 c0 -11 7 -20 15 -20 8 0 15 9 15 20 0 11 -7 20 -15 20 -8 0
-15 -9 -15 -20z"/>
<path d="M730 780 c0 -11 7 -20 15 -20 8 0 15 9 15 20 0 11 -7 20 -15 20 -8 0
-15 -9 -15 -20z"/>
<path d="M845 791 c-8 -15 3 -31 21 -31 9 0 14 7 12 17 -4 20 -24 28 -33 14z"/>
<path d="M960 780 c0 -11 7 -20 15 -20 8 0 15 9 15 20 0 11 -7 20 -15 20 -8 0
-15 -9 -15 -20z"/>
<path d="M1080 780 c0 -11 7 -20 15 -20 8 0 15 9 15 20 0 11 -7 20 -15 20 -8
0 -15 -9 -15 -20z"/>
<path d="M372 709 c1 -13 8 -23 13 -21 15 3 12 35 -3 40 -9 3 -13 -3 -10 -19z"/>
<path d="M497 724 c-11 -11 -8 -44 3 -44 15 0 24 30 13 41 -5 5 -12 6 -16 3z"/>
<path d="M610 705 c0 -17 5 -25 13 -22 6 2 12 12 12 22 0 10 -6 20 -12 23 -8
2 -13 -6 -13 -23z"/>
<path d="M737 724 c-11 -11 -8 -44 3 -44 15 0 24 30 13 41 -5 5 -12 6 -16 3z"/>
<path d="M852 709 c1 -13 8 -23 13 -21 15 3 12 35 -3 40 -9 3 -13 -3 -10 -19z"/>
<path d="M972 709 c1 -13 8 -23 13 -21 15 3 12 35 -3 40 -9 3 -13 -3 -10 -19z"/>
<path d="M1092 709 c1 -13 8 -23 13 -21 15 3 12 35 -3 40 -9 3 -13 -3 -10 -19z"/>
<path d="M366 653 c-12 -12 -6 -33 9 -33 8 0 15 6 15 14 0 17 -14 28 -24 19z"/>
<path d="M736 653 c-12 -12 -6 -33 9 -33 8 0 15 6 15 14 0 17 -14 28 -24 19z"/>
<path d="M856 653 c-12 -12 -6 -33 9 -33 8 0 15 6 15 14 0 17 -14 28 -24 19z"/>
<path d="M480 635 c0 -8 7 -15 15 -15 8 0 15 7 15 15 0 8 -7 15 -15 15 -8 0
-15 -7 -15 -15z"/>
<path d="M605 641 c-3 -5 -1 -12 5 -16 12 -7 30 2 30 16 0 12 -27 12 -35 0z"/>
<path d="M972 638 c5 -15 28 -18 29 -3 0 6 -7 12 -17 13 -10 3 -15 -1 -12 -10z"/>
<path d="M1100 635 c0 -8 7 -15 15 -15 8 0 15 7 15 15 0 8 -7 15 -15 15 -8 0
-15 -7 -15 -15z"/>
<path d="M560 571 c-31 -16 -75 -65 -106 -117 -11 -18 -12 -18 -31 -1 -35 31
-83 13 -83 -32 0 -23 33 -42 61 -36 37 8 40 -17 4 -33 -55 -25 -68 -105 -25
-159 14 -19 20 -41 20 -79 l0 -54 59 0 60 0 3 48 3 47 217 3 217 2 3 -47 3
-48 63 -3 62 -3 0 59 c0 40 5 64 14 72 8 6 20 27 26 45 15 45 -7 98 -50 120
-37 19 -30 39 10 30 23 -5 32 -2 45 18 8 13 13 32 9 41 -9 24 -51 31 -73 12
-10 -9 -20 -16 -23 -16 -3 0 -20 23 -38 50 -19 29 -50 61 -75 75 -39 24 -50
25 -191 25 -126 0 -155 -3 -184 -19z m356 -50 c36 -22 71 -74 80 -120 8 -40
-2 -40 -125 -1 -102 33 -111 34 -111 21 0 -5 26 -18 58 -28 l57 -18 -67 -3
c-53 -2 -86 3 -160 28 -103 33 -108 34 -108 20 0 -5 25 -17 55 -25 30 -9 55
-18 55 -21 0 -2 -38 -4 -84 -4 l-85 0 8 28 c14 48 39 89 71 116 31 25 35 26
178 26 127 0 151 -3 178 -19z m-411 -256 c0 -16 -8 -21 -39 -23 -43 -4 -62 8
-52 33 4 12 16 15 48 13 35 -2 43 -7 43 -23z m103 -2 c-4 -39 -28 -42 -28 -4
0 21 5 31 16 31 11 0 14 -8 12 -27z m60 2 c-4 -33 -22 -33 -26 0 -2 18 1 25
13 25 12 0 15 -7 13 -25z m60 0 c-4 -33 -22 -33 -26 0 -2 18 1 25 13 25 12 0
15 -7 13 -25z m60 -2 c-4 -39 -28 -42 -28 -4 0 21 5 31 16 31 11 0 14 -8 12
-27z m60 2 c-4 -33 -22 -33 -26 0 -2 18 1 25 13 25 12 0 15 -7 13 -25z m60 0
c-4 -33 -22 -33 -26 0 -2 18 1 25 13 25 12 0 15 -7 13 -25z m167 0 c0 -17 -8
-20 -47 -23 -41 -3 -48 -1 -48 16 0 28 10 33 55 30 32 -2 40 -7 40 -23z"/>
</g>
</svg>
