<?xml version="1.0" standalone="no"?>
<!DOCTYPE svg PUBLIC "-//W3C//DTD SVG 20010904//EN"
 "http://www.w3.org/TR/2001/REC-SVG-20010904/DTD/svg10.dtd">
<svg version="1.0" xmlns="http://www.w3.org/2000/svg"
 width="149.000000pt" height="125.000000pt" viewBox="0 0 149.000000 125.000000"
 preserveAspectRatio="xMidYMid meet">

<g transform="translate(0.000000,125.000000) scale(0.100000,-0.100000)"
fill="#000000" stroke="none">
<path d="M499 1177 c44 -55 -65 -237 -162 -271 l-36 -12 112 -64 c150 -85 162
-95 192 -155 32 -67 208 -248 224 -232 19 19 12 51 -19 100 -16 26 -30 50 -30
52 0 4 58 -30 167 -96 77 -47 120 -61 144 -48 28 15 23 36 -13 55 -51 26 -179
116 -173 122 3 3 30 -12 60 -34 85 -60 101 -68 118 -61 36 14 18 46 -57 102
-41 30 -78 60 -82 66 -9 15 6 7 69 -39 47 -34 77 -37 77 -7 0 8 -29 38 -65 66
-84 66 -90 83 -8 23 40 -30 43 -30 43 6 0 25 -12 39 -77 91 -72 58 -162 109
-190 109 -7 0 -70 50 -140 111 -125 108 -185 153 -154 116z"/>
<path d="M346 691 l-49 -50 -60 30 c-32 17 -61 29 -63 27 -2 -3 17 -24 41 -48
25 -24 45 -51 45 -59 0 -12 3 -12 12 -3 9 9 5 18 -16 37 -34 32 -28 42 12 21
28 -15 30 -14 57 14 19 19 31 26 36 19 4 -7 9 -7 12 -2 9 14 27 63 24 63 -2 0
-25 -22 -51 -49z"/>
<path d="M342 635 c-10 -22 -8 -28 23 -57 19 -17 33 -33 31 -35 -2 -3 -23 5
-46 17 l-42 22 -30 -29 -30 -28 6 25 c4 14 -4 5 -18 -20 -37 -66 -32 -69 24
-11 l49 52 62 -31 c33 -17 63 -30 65 -28 2 3 -19 26 -46 53 -41 41 -47 51 -39
67 6 11 9 22 6 24 -2 2 -9 -7 -15 -21z"/>
<path d="M582 560 c-23 -16 -51 -48 -64 -70 -26 -45 -29 -46 -63 -24 -35 23
-67 4 -63 -39 3 -30 6 -32 46 -35 44 -3 55 -16 22 -27 -71 -22 -81 -150 -14
-185 19 -11 24 -22 26 -64 l3 -51 39 -3 c46 -4 56 7 56 61 l0 37 54 0 c53 0
54 1 69 38 8 20 11 39 6 40 -5 2 -9 11 -9 21 0 9 -22 38 -48 64 -37 36 -55 47
-80 47 -37 0 -40 12 -16 68 19 46 57 87 96 103 27 11 28 13 12 30 -22 25 -24
24 -72 -11z m-44 -269 c8 -5 12 -17 10 -27 -5 -27 -82 -33 -92 -7 -13 32 47
57 82 34z m112 -27 c0 -26 -17 -33 -26 -9 -8 20 3 48 16 40 5 -3 10 -17 10
-31z"/>
<path d="M900 490 c0 -5 5 -10 10 -10 6 0 10 5 10 10 0 6 -4 10 -10 10 -5 0
-10 -4 -10 -10z"/>
<path d="M1122 451 c-27 -37 -19 -61 18 -61 51 0 66 48 24 76 -18 13 -22 11
-42 -15z"/>
<path d="M846 433 c-6 -19 35 -148 53 -166 10 -10 204 46 209 61 6 20 -30 102
-44 102 -12 0 -12 -6 1 -36 19 -45 19 -64 1 -64 -7 0 -42 -9 -76 -20 -34 -11
-66 -20 -70 -20 -5 0 -16 24 -26 53 -9 28 -23 65 -29 81 -12 27 -13 28 -19 9z"/>
<path d="M906 443 c-11 -11 -6 -23 9 -23 8 0 15 4 15 9 0 13 -16 22 -24 14z"/>
<path d="M584 421 c3 -4 26 -14 51 -21 50 -14 75 -36 31 -28 -43 9 -30 -7 34
-37 l60 -29 29 28 c37 35 48 19 22 -32 l-20 -39 29 -28 c37 -36 33 -41 -14
-19 l-36 18 -36 -35 -36 -34 22 44 22 43 -33 34 c-37 38 -35 41 16 17 l36 -17
27 29 27 29 -28 -24 -27 -24 -55 27 c-31 15 -59 27 -62 27 -4 0 14 -22 41 -49
l48 -48 -31 -61 c-37 -74 -38 -82 -6 -52 22 20 33 23 97 21 79 -3 81 0 22 28
-39 19 -39 19 -64 -2 -24 -21 -24 -21 1 7 l26 28 64 -32 c53 -27 61 -29 45
-12 -10 12 -24 19 -30 15 -6 -3 -8 -2 -3 2 4 5 0 17 -10 27 -32 36 4 17 42
-22 33 -34 45 -40 81 -40 l43 0 3 -47 3 -48 40 0 40 0 5 46 c4 37 12 52 37 73
42 35 53 86 28 133 -20 36 -35 43 -35 15 0 -10 -3 -22 -7 -26 -4 -4 -7 -19 -8
-34 0 -24 -4 -27 -40 -30 -27 -2 -43 1 -51 13 -11 15 -15 15 -49 1 -21 -9 -53
-16 -71 -16 -29 0 -34 4 -34 23 0 12 -7 35 -15 51 -8 15 -15 34 -15 40 0 6 -8
12 -17 13 -10 1 -61 15 -114 32 -97 31 -135 38 -125 22z m248 -139 c-3 -34 -7
-40 -18 -32 -11 10 -10 17 3 46 9 18 17 33 18 31 1 -1 0 -21 -3 -45z"/>
<path d="M962 409 c2 -6 8 -10 13 -10 5 0 11 4 13 10 2 6 -4 11 -13 11 -9 0
-15 -5 -13 -11z"/>
<path d="M982 361 c4 -13 18 -16 19 -4 0 4 -5 9 -11 12 -7 2 -11 -2 -8 -8z"/>
<path d="M1046 363 c-11 -11 -6 -23 9 -23 8 0 15 4 15 9 0 13 -16 22 -24 14z"/>
</g>
</svg>
